<svg width="233" height="105" viewBox="0 0 233 105" fill="none" xmlns="http://www.w3.org/2000/svg">
<g id="Group">
<path id="Vector" d="M72.0667 2.93361C74.3333 10.1336 79.2667 22.1336 80.4667 23.3336C81.5333 24.4003 88.0667 24.4003 102.467 23.2003C113.667 22.4003 134.6 22.0003 148.867 22.2669L174.733 22.8003L170.867 19.7336C168.733 18.1336 161.667 13.2003 155 9.06694L143 1.33361L107.133 0.933607C73 0.533607 71.4 0.533607 72.0667 2.93361Z" fill="#6B0F12"/>
<path id="Vector_2" d="M37.2667 5.33338C30.7333 8.40005 15.6667 22 15.6667 24.8C15.6667 25.4667 20.0667 26 25.5333 26C36.2 26 67.2667 28.2667 73.6667 29.4667C77.6667 30.2667 77.6667 30.1334 74.7333 28.1334C73.1333 26.9334 70.6 22.2667 69 17.0667C65.1333 4.93338 61.8 2.00005 51.9333 2.00005C46.6 2.00005 42.2 3.06671 37.2667 5.33338Z" fill="#6B0F12"/>
<path id="Vector_3" d="M21 33.3336C32.3333 35.4669 69 39.7336 69.8 38.9336C70.0666 38.6669 64.7333 37.0669 58.0666 35.3336C49.2666 33.2003 40.6 32.2669 28.3333 31.8669L11 31.4669L21 33.3336Z" fill="#6B0F12"/>
<path id="Vector_4" d="M223.4 44.0003C219.267 47.467 218.6 50.667 221.533 51.7336C223.8 52.667 230.333 51.067 230.333 49.6003C230.467 46.0003 230.2 44.9336 228.733 42.9336C227.133 40.9336 226.733 41.067 223.4 44.0003Z" fill="#6B0F12"/>
<path id="Vector_5" d="M105.267 45.0667C98.8667 46.5334 98.7333 48.2667 104.467 51.6001C107.533 53.3334 113.267 54.0001 130.867 54.8001L153.267 55.7334L151.667 52.5334C150.733 50.8001 149.8 49.2001 149.667 48.9334C149 48.1334 119.8 43.3334 115.667 43.4667C113.133 43.6001 108.467 44.2667 105.267 45.0667Z" fill="#6B0F12"/>
<path id="Vector_6" d="M0.46665 49.0668C-0.33335 52.5335 0.06665 56.0001 1.53332 60.5335C2.73332 64.2668 3.66665 69.3335 3.66665 71.8668C3.66665 79.2001 7.26665 86.9335 11.4 88.4001C13.4 89.2001 21.6667 90.4001 29.6667 91.2001C63.1333 94.4001 79.6667 96.8001 85.5333 99.4668C93.8 103.067 123.267 105.2 151.667 104C174.467 103.2 218.733 98.8001 223.933 96.8001C226.6 95.8668 226.6 95.6001 222.2 94.1335C218.067 92.6668 217.933 92.2668 220.333 91.3335C221.933 90.8001 223.933 89.3335 224.867 88.1335C226.467 86.2668 226.333 86.0001 223.933 86.0001C222.333 86.0001 218.2 84.2668 214.733 82.0001C207.8 77.6001 203.4 77.2001 180.067 78.8001C168.467 79.7335 167.8 79.8668 162.2 84.8001C159 87.6001 155.133 90.0001 153.667 90.0001C152.2 90.0001 142.733 90.4001 132.733 90.8001C111.267 91.7335 108.333 91.3335 106.6 86.4001C105.8 84.1335 105.133 83.6001 105.133 84.9335C105 86.2668 103.133 89.3335 100.867 92.0001C97.5333 95.7335 95.8 96.6668 91.8 96.6668C82.8667 96.6668 77 87.7335 77 74.5335C77 60.6668 82.8667 53.2001 92.8667 54.2668C97.5333 54.6668 97.9333 54.4001 96.8667 52.4001C95.2667 49.3335 90.3333 46.0001 87.2667 46.0001C79.2667 46.0001 72.6 54.6668 70.8667 67.0668C70.0667 73.2001 69.6667 73.8668 67.1333 73.3335C65.6667 73.0668 54.7333 70.9335 43 68.6668C31.2667 66.2668 21.2667 64.2668 20.8667 63.8668C20.3333 63.6001 19 60.5335 17.8 57.0668C15.5333 50.5335 11 44.6668 8.19998 44.6668C7.26665 44.6668 5.66665 45.8668 4.46665 47.4668L2.59998 50.2668L2.06665 47.2001C1.53332 44.5335 1.26665 44.9335 0.46665 49.0668ZM13 54.6668C15.8 58.0001 16.3333 75.2001 13.9333 80.9335C9.93332 90.4001 4.99998 83.2001 4.99998 67.8668C4.99998 54.8001 8.46665 49.2001 13 54.6668ZM51.9333 82.2668L59 83.8668L50.3333 84.8001C26.4667 87.4668 26.0667 87.3335 29.1333 81.7335C30.4667 79.3335 31.4 79.0668 37.8 79.8668C41.6667 80.2668 48.0667 81.3335 51.9333 82.2668ZM191 90.0001C191.933 91.6001 176.6 91.6001 171.667 90.0001C169.4 89.2001 171.8 88.9335 179.267 88.8001C185.267 88.6668 190.6 89.2001 191 90.0001Z" fill="#6B0F12"/>
<path id="Vector_7" d="M177.4 46.1335C169.267 46.6669 161.8 47.4669 161 48.0002C159.133 49.0669 160.067 57.2002 162.467 62.5335C165 68.1335 169.933 69.2002 189.4 68.2669C206.6 67.6002 213.933 66.1335 215.933 62.9335C217.667 60.2669 217.133 47.3335 215.4 46.6669C211.667 45.6002 191.4 45.2002 177.4 46.1335Z" fill="#6B0F12"/>
<path id="Vector_8" d="M227 65.2003C216.867 69.6003 218.867 80.667 229.8 80.667C232.867 80.667 233 80.267 233 72.0003C233 67.2003 232.6 63.3337 232.067 63.3337C231.4 63.467 229.133 64.267 227 65.2003Z" fill="#6B0F12"/>
<path id="Vector_9" d="M116.733 69.9999C114.867 71.0666 114.333 73.1999 114.333 78.7999V86.2666L130.2 85.7333C143.533 85.4666 146.467 84.9333 148.867 82.7999C152.6 79.4666 152.467 74.5333 148.733 72.1333C144.733 69.7333 119.933 67.9999 116.733 69.9999Z" fill="#6B0F12"/>
</g>
</svg>
