<svg width="188" height="132" viewBox="0 0 188 132" fill="none" xmlns="http://www.w3.org/2000/svg">
<g id="Group">
<path id="Vector" d="M90.5333 2.26666C89.0667 3.99999 88.5333 16 88.2667 64.6667C87.8667 124.133 88 124.933 90.6667 128.4L93.4667 132H137.867C181.333 132 182.267 132 184.8 129.2C187.2 126.533 187.333 123.2 187.733 67.2C188.133 -3.73334 188.8 -6.88434e-06 174.8 -6.88434e-06H165.733L164.8 6.53333C164.4 10.1333 163.067 13.7333 162 14.6667C158.267 17.7333 160 18.5333 170.4 18.9333L180.667 19.3333V72.6667V126H138H95.3333V72.6667V19.3333L105.467 18.9333L115.6 18.5333L113.2 13.6C111.733 10.9333 110.667 6.79999 110.667 4.39999V-6.88434e-06H101.467C94.5333 -6.88434e-06 91.8667 0.533326 90.5333 2.26666Z" fill="#6B0F12"/>
<path id="Vector_2" d="M113.867 5.6C114.4 9.06667 116.133 12.6667 118.133 14.6667C121.2 17.8667 122 18 138.133 18C154.8 18 154.933 18 158.133 14.2667C160.4 11.7333 161.333 8.93333 161.333 5.2V-9.38773e-07H151.2C143.067 -9.38773e-07 141.2 0.399999 141.733 1.86667C142.133 2.93333 141.6 4.8 140.667 6.26667C139.2 8.13333 138.4 8.4 136.4 7.2C135.067 6.26667 134.133 4.4 134.267 2.8C134.667 0.133332 134 -9.38773e-07 123.867 -9.38773e-07H112.933L113.867 5.6Z" fill="#6B0F12"/>
<path id="Vector_3" d="M39.3333 8.79999C31.0667 13.0667 27.0667 18.4 22.8 31.0667C20.6667 37.2 20.2667 37.7333 15.7333 38C8.66667 38.4 4 41.8667 4 46.6667C4 49.6 4.8 51.0667 7.2 52.1333L10.4 53.6L7.2 58.4C4.4 62.4 4 64.6667 4 74C4 81.2 3.33333 86.4 2 88.8C0.8 91.0667 0 96.2667 0 101.067C0 108.267 0.533333 110 3.33333 112.667L6.53333 116H45.3333H84V110.667V105.467L65.7333 105.067C49.4667 104.667 47.3333 104.4 46.9333 102.267C46.5333 100.267 48.1333 100 65.2 100H84V74V48H53.3333C36.5333 48 22.6667 47.8667 22.6667 47.6C22.6667 47.3333 24.4 42 26.5333 35.6C34 13.7333 36.6667 12 64.5333 12C83.0667 12 84 11.8667 84 9.33333C84 6.79999 83.0667 6.66666 63.7333 6.66666C47.8667 6.66666 42.4 7.19999 39.3333 8.79999ZM32.8 68C37.3333 70.4 39.3333 72.1333 39.3333 74C39.3333 76.4 38.2667 76.6667 26.1333 77.0667C17.6 77.3333 12.4 76.9333 11.2 75.8667C9.2 74.2667 8.66667 66.5333 10.4 64.8C12.2667 62.8 26.1333 64.8 32.8 68ZM30 102C30 104.133 28.9333 104.8 24.1333 105.067C17.7333 105.6 15.2 104 16.5333 100.667C17.0667 99.0667 18.8 98.6667 23.6 98.9333C28.9333 99.3333 30 99.7333 30 102Z" fill="#6B0F12"/>
<path id="Vector_4" d="M116.267 29.3333C112.933 33.8667 111.2 34.2667 108 31.3333C106 29.4667 105.6 29.4667 104 31.3333C102.4 33.2 102.933 34.1333 107.2 38.4L112.133 43.3333L116.133 38.6667C123.6 29.8667 124.667 27.8667 122.533 26.5333C119.733 24.8 119.467 24.9333 116.267 29.3333Z" fill="#6B0F12"/>
<path id="Vector_5" d="M132 35.3333V38.6667H152H172V35.3333V32H152H132V35.3333Z" fill="#6B0F12"/>
<path id="Vector_6" d="M115.467 54.1333C112 58.4 111.467 58.5333 109.333 56.6667C106.667 54.2667 104.533 54.1333 103.2 56.1333C102.4 57.4667 110.133 66.6667 112.133 66.6667C112.667 66.6667 115.6 63.6 118.667 60C123.333 54.4 124 52.9333 122.667 51.3333C120.4 48.6667 119.867 48.8 115.467 54.1333Z" fill="#6B0F12"/>
<path id="Vector_7" d="M132 60C132 62.5333 132.933 62.6667 152 62.6667C171.067 62.6667 172 62.5333 172 60C172 57.4667 171.067 57.3333 152 57.3333C132.933 57.3333 132 57.4667 132 60Z" fill="#6B0F12"/>
<path id="Vector_8" d="M116.133 78C112 82.8 111.733 82.8 109.2 80.5333C106.933 78.4 106.4 78.4 104.667 80.1333C102.933 81.8667 103.2 82.6667 107.2 86.6667C112.533 91.7333 112.933 91.4667 120.267 82.4C123.867 77.7333 124.133 76.9333 122.4 75.2C120.667 73.4667 119.867 73.7333 116.133 78Z" fill="#6B0F12"/>
<path id="Vector_9" d="M132 84C132 86.5333 132.933 86.6667 152 86.6667C171.067 86.6667 172 86.5333 172 84C172 81.4667 171.067 81.3333 152 81.3333C132.933 81.3333 132 81.4667 132 84Z" fill="#6B0F12"/>
<path id="Vector_10" d="M115.467 102.933C112.133 107.2 112.133 107.2 109.333 104.667C106.8 102.267 106.4 102.267 104.267 104.4C102.267 106.533 102.4 106.933 107.067 111.733L112.133 116.667L114.4 113.867C122.533 103.867 124.133 101.333 123.333 100C121.867 97.6 118.933 98.6667 115.467 102.933Z" fill="#6B0F12"/>
<path id="Vector_11" d="M132 108.667V112H152H172V108.667V105.333H152H132V108.667Z" fill="#6B0F12"/>
<path id="Vector_12" d="M5.33334 121.867C5.33334 128.8 7.06668 129.467 25.4667 129.067C41.6 128.667 42 128.667 43.8667 125.2C44.9333 123.333 45.3333 120.8 44.9333 119.6C44.1333 117.6 41.4667 117.333 24.6667 117.333H5.33334V121.867Z" fill="#6B0F12"/>
</g>
</svg>
