<svg width="1793" height="1153" viewBox="0 0 1793 1153" fill="none" xmlns="http://www.w3.org/2000/svg">
<path id="Vector" d="M1664.37 576.898C1563.04 419.565 1436.04 301.898 1283.37 223.898C1324.04 293.232 1344.37 368.232 1344.37 448.898C1344.37 572.232 1300.54 677.732 1212.87 765.398C1125.21 853.065 1019.71 896.898 896.373 896.898C773.04 896.898 667.54 853.065 579.873 765.398C492.206 677.732 448.373 572.232 448.373 448.898C448.373 368.232 468.706 293.232 509.373 223.898C356.706 301.898 229.706 419.565 128.373 576.898C217.04 713.565 328.206 822.398 461.873 903.398C595.54 984.398 740.373 1024.9 896.373 1024.9C1052.37 1024.9 1197.21 984.398 1330.87 903.398C1464.54 822.398 1575.71 713.565 1664.37 576.898ZM944.373 192.898C944.373 179.565 939.706 168.232 930.373 158.898C921.04 149.565 909.706 144.898 896.373 144.898C813.04 144.898 741.54 174.732 681.873 234.398C622.206 294.065 592.373 365.565 592.373 448.898C592.373 462.232 597.04 473.565 606.373 482.898C615.706 492.232 627.04 496.898 640.373 496.898C653.706 496.898 665.04 492.232 674.373 482.898C683.706 473.565 688.373 462.232 688.373 448.898C688.373 391.565 708.706 342.565 749.373 301.898C790.04 261.232 839.04 240.898 896.373 240.898C909.706 240.898 921.04 236.232 930.373 226.898C939.706 217.565 944.373 206.232 944.373 192.898ZM1792.37 576.898C1792.37 599.565 1785.71 622.565 1772.37 645.898C1679.04 799.232 1553.54 922.065 1395.87 1014.4C1238.21 1106.73 1071.71 1152.9 896.373 1152.9C721.04 1152.9 554.54 1106.56 396.873 1013.9C239.206 921.232 113.706 798.565 20.3729 645.898C7.03953 622.565 0.372864 599.565 0.372864 576.898C0.372864 554.232 7.03953 531.232 20.3729 507.898C113.706 355.232 239.206 232.565 396.873 139.898C554.54 47.2317 721.04 0.898315 896.373 0.898315C1071.71 0.898315 1238.21 47.2317 1395.87 139.898C1553.54 232.565 1679.04 355.232 1772.37 507.898C1785.71 531.232 1792.37 554.232 1792.37 576.898Z" fill="#6B0F12"/>
</svg>
